<svg fill="#ffffff" xmlns="http://www.w3.org/2000/svg" shape-rendering="geometricPrecision" text-rendering="geometricPrecision" image-rendering="optimizeQuality" fill-rule="evenodd" clip-rule="evenodd" viewBox="0 0 512 511.99"><path fill-rule="nonzero" d="m266.21 252.52 67.42 233.85L491.08 20.91 25.62 178.36l233.85 67.42c3.38.97 5.84 3.59 6.74 6.74zm50.84 247.07-68.18-236.47-236.89-68.29c-4.09-1.37-7.2-3.96-9.24-7.12A17.576 17.576 0 0 1 0 178.6c-.05-3.26.83-6.56 2.69-9.41 1.85-2.86 4.62-5.23 8.3-6.61C154.25 108.21 342.94 43.44 489.62.69c3.48-.92 6.84-.89 9.86-.08 2.9.77 5.48 2.27 7.54 4.33 2.08 2.07 3.59 4.65 4.38 7.62.8 3.01.83 6.37-.1 9.85L349.65 500.38c-1.37 3.99-3.84 6.97-6.85 8.93-2.84 1.84-6.15 2.73-9.42 2.68-3.19-.05-6.38-.98-9.1-2.74l-.04-.04c-3.13-2.03-5.72-5.13-7.08-9.24l-.11-.38z"/></svg>