<svg fill="#ffffff" xmlns="http://www.w3.org/2000/svg" shape-rendering="geometricPrecision" text-rendering="geometricPrecision" image-rendering="optimizeQuality" fill-rule="evenodd" clip-rule="evenodd" viewBox="0 0 465 512.28"><path fill-rule="nonzero" d="m27.59 192.83 10.23 9.15V9.31c0-5.14 4.17-9.31 9.31-9.31h279.8a9.3 9.3 0 0 1 7.17 3.37l88.35 92.07c1.74 1.8 2.6 4.12 2.6 6.44l.02 101.57 12.74-11.13c2.67-2.34 5.64-3.37 8.73-3.37 2.59 0 5.06.78 7.34 2.14 1.68 1.01 3.25 2.37 4.63 3.95 3.64 4.16 6.32 10.57 6.32 15.87v272.66c.22 1.16.23 2.34 0 3.5v4.29c0 5.76-2.36 11-6.14 14.78-3.78 3.78-9.01 6.14-14.77 6.14H20.91c-5.75 0-10.99-2.36-14.77-6.14C2.36 502.36 0 497.12 0 491.36V210.91c0-5.4 2.77-11.93 6.47-16.08l.65-.65c1.24-1.29 2.59-2.4 3.98-3.21l.96-.49c1.96-.99 4.07-1.55 6.24-1.55 3.14 0 6.15 1.06 8.83 3.46l.46.44zm288.03 4.63c-.8 17.03-5.03 30.47-12.57 40.31-7.57 9.85-17.83 14.77-30.78 14.77-12.36 0-20.6-5.24-24.75-15.74-3.49 5.16-7.54 9.07-12.11 11.65-4.61 2.59-9.43 3.88-14.49 3.88-9.95 0-17.49-4.08-22.66-12.25-5.13-8.17-7.09-19.1-5.86-32.78 1.08-11.1 3.8-21.12 8.13-30.02 4.33-8.94 9.81-15.81 16.44-20.7 6.67-4.85 13.72-7.3 21.22-7.3 5.73 0 10.79.7 15.19 2.13s9.57 4.4 15.5 8.9l-5.31 57.5c-1.29 13.47 2.59 20.21 11.66 20.21 6.95 0 12.67-3.7 17.14-11.17 4.44-7.47 6.88-17.11 7.3-28.98 1.15-25.1-3.7-44.33-14.56-57.7-10.89-13.33-27.23-20-49.04-20-13.37 0-25.21 3.35-35.54 10.02-10.33 6.67-18.54 16.33-24.61 28.97s-9.39 27.02-10.02 43.18c-.84 16.41 1.15 30.58 5.87 42.45 4.74 11.9 12.01 20.95 21.78 27.16 9.81 6.17 21.75 9.28 35.85 9.28 5.73 0 11.73-.7 17.94-2.06 6.25-1.36 11.56-3.17 15.92-5.51l3.87 14c-4.15 2.72-9.74 4.92-16.82 6.56-7.05 1.67-14.14 2.51-21.29 2.51-17.35 0-32.19-3.67-44.62-11-12.39-7.33-21.71-17.94-27.92-31.83-6.39-14.38-9.22-31.59-8.48-51.63.83-18.64 5.02-35.43 12.6-50.33 7.54-14.88 17.91-26.46 31.03-34.7 13.12-8.24 28.06-12.36 44.82-12.36 17 0 31.59 3.74 43.85 11.21 12.21 7.43 21.39 18.18 27.43 32.18 6.08 14 8.7 30.41 7.89 49.19zm-103.18 9.87c-.88 9.26-.07 16.27 2.44 21.05 2.55 4.79 6.56 7.19 12.08 7.19 3.66 0 7.15-1.6 10.43-4.85 3.28-3.21 5.94-7.64 7.96-13.3l4.61-50.3c-3.42-1.29-6.7-1.92-9.91-1.92-7.58 0-13.76 3.56-18.5 10.65-4.78 7.12-7.82 17.59-9.11 31.48zM335.29 31.42v65.61h62.96l-62.96-65.61zm71.17 84.23h-80.48c-5.14 0-9.31-4.17-9.31-9.31V18.62H56.44v199.99l173.68 155.15 176.34-154.05V115.65zm39.75 373.71-160.9-139.19-49.15 42.94c-3.47 3.04-8.76 3.08-12.28-.07l-47.82-42.72L18.62 486.01v5.35c0 .63.26 1.21.68 1.62.41.42.99.68 1.61.68h423.01a2.301 2.301 0 0 0 2.29-2.3v-2zM299.42 337.85l146.79 126.98V210.91c0-.35-.07-.73-.19-1.13l-146.6 128.07zM18.62 461.52l143.49-123.66-143.3-128.02c-.13.38-.19.74-.19 1.07v250.61z"/></svg>