<svg fill="#0ea5e9" id="Layer_1" data-name="Layer 1" xmlns="http://www.w3.org/2000/svg" viewBox="0 0 122.88 122.45"><defs><style>.cls-1{fill-rule:evenodd;}</style></defs><title>pen-tool-vector-design</title><path class="cls-1" d="M89.85,87.54,80.28,112,45,111.53l-9.76-24c8.39-15,16.91-33.3,21.29-49.31l4.65.5L61,81.86a4.48,4.48,0,1,0,2.79-.12L63.94,39l5.32-.24c3.9,16.14,12.34,34.38,20.59,48.8ZM53.42,0H71.86a2.46,2.46,0,0,1,2.46,2.47v6H103.4a10,10,0,0,1,2.37-3.76v0a10,10,0,0,1,14.15,0l0,0a10,10,0,0,1,0,14.15h0a10,10,0,0,1-14.17,0l-.18-.2a9.88,9.88,0,0,1-2.19-3.57h-15a54.8,54.8,0,0,1,13,10.51,58.26,58.26,0,0,1,14.32,29.58h4a3,3,0,0,1,3,3V71.69a3,3,0,0,1-3,3H106.43a3,3,0,0,1-3-3V58.18a3,3,0,0,1,3-3h3.09A52.2,52.2,0,0,0,96.89,29.76,47.29,47.29,0,0,0,74.32,15.85v5.28a2.47,2.47,0,0,1-2.46,2.47H53.42A2.48,2.48,0,0,1,51,21.13V15.86A47.14,47.14,0,0,0,28,30.34,52.74,52.74,0,0,0,15.83,55.21h3a3,3,0,0,1,3,3V71.69a3,3,0,0,1-3,3H5.49a3,3,0,0,1-3-3V58.18a3,3,0,0,1,3-3h4.1A59,59,0,0,1,23.38,26.27,54.56,54.56,0,0,1,37,15.12H19.48a10,10,0,0,1-2.37,3.75v0A10,10,0,0,1,3,18.89l0,0a10,10,0,0,1,0-14.15l0,0a10,10,0,0,1,14.15,0h0a9.85,9.85,0,0,1,2.38,3.77H51v-6A2.47,2.47,0,0,1,53.42,0Zm26,122.45H45.2v-6.82H79.44v6.82Z"/></svg>