<?xml version="1.0" encoding="utf-8"?><svg fill="#0ea5e9" version="1.1" id="Layer_1" xmlns="http://www.w3.org/2000/svg" xmlns:xlink="http://www.w3.org/1999/xlink" x="0px" y="0px" viewBox="0 0 122.88 110.78" style="enable-background:new 0 0 122.88 110.78" xml:space="preserve"><style type="text/css"><![CDATA[
	.st0{fill-rule:evenodd;clip-rule:evenodd;}
]]></style><g><path class="st0" d="M7.05,0h100.97c1.92,0,3.68,0.8,4.95,2.07l0,0l0.01,0.01l0.01,0.01L113,2.1c1.27,1.28,2.06,3.03,2.06,4.95 v35.02c-0.53-0.48-1.13-0.91-1.78-1.28c-1.54-0.87-3.06-1.36-4.58-1.52V25.21l0,0c-0.22,0.04-0.45,0.06-0.67,0.06H7.05 c-0.23,0-0.46-0.02-0.67-0.06v78.51c0,0.19,0.07,0.36,0.19,0.48l0,0l0.01,0.01c0.12,0.12,0.28,0.19,0.48,0.19h52.44 c-0.01,2.74,0.52,4.86,1.58,6.38l-54.02,0c-1.92,0-3.68-0.79-4.96-2.07l-0.01-0.01l-0.01-0.01l-0.01-0.01 C0.79,107.4,0,105.65,0,103.73l0-96.7c0.02-1.94,0.81-3.7,2.08-4.97c0.08-0.08,0.15-0.15,0.23-0.22C3.57,0.7,5.23,0,7.05,0L7.05,0 L7.05,0z M55.11,47.78c-1.48,0-2.68-1.3-2.68-2.91c0-1.61,1.2-2.91,2.68-2.91h40.15c1.25,0,2.3,0.93,2.6,2.19l-3.51,3.64H55.11 L55.11,47.78L55.11,47.78z M55.11,62.5c-1.48,0-2.68-1.3-2.68-2.91s1.2-2.91,2.68-2.91h30.65l-5.62,5.82H55.11L55.11,62.5 L55.11,62.5z M89.25,97.9c-2.05,0.65-4.1,1.29-6.15,1.94c-2.05,0.65-4.1,1.4-6.15,2.05c-4.86,1.51-7.55,2.48-8.1,2.59 c-0.54,0.11-0.21-2.05,0.97-6.8l3.88-14.78l0.32-0.32L89.25,97.9L89.25,97.9L89.25,97.9L89.25,97.9L89.25,97.9L89.25,97.9z M79.64,76.85l27.16-28.13c0.65-0.54,1.3-0.75,2.05-0.32l13.6,13.17c0.54,0.65,0.65,1.4-0.11,2.16L94.86,92.18L79.64,76.85 L79.64,76.85L79.64,76.85L79.64,76.85z M115.06,85.16v18.58c0,1.94-0.79,3.7-2.07,4.97c-1.27,1.27-3.03,2.07-4.97,2.07H79.74 l0.51-0.16l0.5-0.14c0.55-0.17,1.86-0.62,3.16-1.07c0.67-0.23,1.34-0.46,2.74-0.9l5.9-1.86l-0.01-0.02 c1.39-0.44,2.7-1.18,3.83-2.23h11.65c0.18,0,0.35-0.08,0.48-0.21c0.12-0.12,0.21-0.29,0.21-0.48V91.74L115.06,85.16L115.06,85.16z M19.51,92.45c-1.46,0-2.65-1.3-2.65-2.91s1.19-2.91,2.65-2.91h43.62l-1.53,5.82H19.51L19.51,92.45L19.51,92.45z M18.45,79.73 c-1.46,0-2.65-1.3-2.65-2.91c0-1.61,1.19-2.91,2.65-2.91h50.92c-0.56,0.37-1.1,0.81-1.6,1.31l-0.05,0.05 c-1.26,1.18-2.24,2.7-2.77,4.46H18.45L18.45,79.73L18.45,79.73z M16.49,34.55h29.25v29.51H16.49V34.55L16.49,34.55L16.49,34.55z M46.94,9.08c2.53,0,4.57,2.05,4.57,4.57c0,2.52-2.05,4.57-4.57,4.57c-2.52,0-4.57-2.05-4.57-4.57 C42.37,11.13,44.42,9.08,46.94,9.08L46.94,9.08L46.94,9.08z M30.96,9.08c2.53,0,4.57,2.05,4.57,4.57c0,2.52-2.05,4.57-4.57,4.57 c-2.53,0-4.57-2.05-4.57-4.57C26.39,11.13,28.44,9.08,30.96,9.08L30.96,9.08L30.96,9.08z M14.99,9.08c2.53,0,4.57,2.05,4.57,4.57 c0,2.52-2.05,4.57-4.57,4.57c-2.53,0-4.57-2.05-4.57-4.57C10.42,11.13,12.46,9.08,14.99,9.08L14.99,9.08L14.99,9.08z"/></g></svg>