<?xml version="1.0" encoding="utf-8"?><svg fill="#0ea5e9" version="1.1" id="Layer_1" xmlns="http://www.w3.org/2000/svg" xmlns:xlink="http://www.w3.org/1999/xlink" x="0px" y="0px" viewBox="0 0 122.88 63.7" style="enable-background:new 0 0 122.88 63.7" xml:space="preserve"><style type="text/css"><![CDATA[
	.st0{fill-rule:evenodd;clip-rule:evenodd;}
]]></style><g><path class="st0" d="M2.29,59.12h11.37c-0.84-0.21-1.47-0.99-1.47-1.9V1.96C12.2,0.89,13.08,0,14.16,0h82.18 c1.07,0,1.96,0.89,1.96,1.96v16.66l-3.08,0.94v-9.48H15.55v46.58h79.67V44.64l1.02-0.17c0.69-0.12,1.34-0.34,1.93-0.65l0.14-0.03 v13.41c0,0.91-0.63,1.68-1.47,1.9h11.89c1.26,0,2.29,1.03,2.29,2.29l0,0c0,1.27-1.03,2.29-2.29,2.29H2.29C1.03,63.7,0,62.67,0,61.4 l0,0C0,60.15,1.03,59.12,2.29,59.12L2.29,59.12L2.29,59.12z M78.99,35.1c1.05,1.13,2.22,3.44,1.99,5.44l14.2-2.41 c-0.53-4.02-1.71-7.71-3.99-10.84C86.59,30.41,83.95,32.35,78.99,35.1L78.99,35.1L78.99,35.1z M56.02,46.68 c6.64-1.97,13.74,5.08,19.39-0.39c1.5-1.45,2.52-3.79,2.39-5.98c-0.06-0.88-0.29-1.73-0.76-2.48c-0.21-0.33-0.46-0.64-0.75-0.95 c-3.62-3.69-9.23-2.23-12.92,0.6C59.98,40.09,57.55,43.97,56.02,46.68L56.02,46.68L56.02,46.68z M93.08,26.93 c2.14,3.39,3.49,6.91,3.98,10.58L120.13,25c1.91-0.86,3.13-1.74,2.64-4.24c-0.38-0.82-0.9-1.37-1.56-1.65 c-0.65-0.28-1.43-0.28-2.35,0L93.08,26.93L93.08,26.93L93.08,26.93z M22.38,20.68h66.25c0.39,0,0.74,0.14,1.01,0.38 c-0.79,0.2-1.55,0.54-2.25,1.06l-0.14,0.11c-3.17,2.15-0.98,0.65-1.81,1.22l-0.5,0.35h-61v16.13h28.69 c-0.73,1.09-1.37,2.15-1.92,3.1H22.38c-0.86,0-1.55-0.7-1.55-1.55V22.23C20.83,21.38,21.52,20.68,22.38,20.68L22.38,20.68z M79.98,17.07c-0.86,0-1.55-0.69-1.55-1.55c0-0.86,0.7-1.55,1.55-1.55h6.25c0.86,0,1.55,0.69,1.55,1.55c0,0.86-0.69,1.55-1.55,1.55 H79.98L79.98,17.07z M64.54,17.07c-0.86,0-1.55-0.69-1.55-1.55c0-0.86,0.7-1.55,1.55-1.55h6.25c0.86,0,1.55,0.69,1.55,1.55 c0,0.86-0.7,1.55-1.55,1.55H64.54L64.54,17.07z M49.09,17.07c-0.86,0-1.55-0.69-1.55-1.55c0-0.86,0.69-1.55,1.55-1.55h6.25 c0.86,0,1.55,0.69,1.55,1.55c0,0.86-0.69,1.55-1.55,1.55H49.09L49.09,17.07z M25.1,4.71c0.86,0,1.56,0.7,1.56,1.56 s-0.7,1.56-1.56,1.56c-0.86,0-1.56-0.7-1.56-1.56S24.25,4.71,25.1,4.71L25.1,4.71L25.1,4.71z M30.38,4.71 c0.86,0,1.55,0.7,1.55,1.56s-0.7,1.56-1.55,1.56s-1.56-0.7-1.56-1.56C28.82,5.41,29.52,4.71,30.38,4.71L30.38,4.71L30.38,4.71z M19.83,4.71c0.86,0,1.56,0.7,1.56,1.56s-0.7,1.56-1.56,1.56c-0.86,0-1.56-0.7-1.56-1.56C18.27,5.41,18.97,4.71,19.83,4.71 L19.83,4.71L19.83,4.71z M52.28,59.98h6.45c0.61,0,1.1,0.5,1.1,1.1l0,0c0,0.61-0.5,1.1-1.1,1.1h-6.45c-0.61,0-1.1-0.5-1.1-1.1l0,0 C51.18,60.46,51.67,59.98,52.28,59.98L52.28,59.98L52.28,59.98z"/></g></svg>