<svg fill="#0ea5e9" xmlns="http://www.w3.org/2000/svg" shape-rendering="geometricPrecision" text-rendering="geometricPrecision" image-rendering="optimizeQuality" fill-rule="evenodd" clip-rule="evenodd" viewBox="0 0 512 406.8"><path d="M29.27 0h373.81c16.11 0 29.27 13.16 29.27 29.27v90.8c-2.23-1.1-4.48-2.14-6.77-3.13l-2.02-.92c-3.57-1.47-7.18-2.82-10.84-4.02V81.94h.14H20.83v221.61c0 4.5 3.59 8.09 8.09 8.09h193.04c.54 1.42 1.1 2.83 1.69 4.24 1.97 4.78 4.23 9.49 6.73 14.09H29.27C13.16 329.97 0 316.78 0 300.7V29.27C0 13.16 13.16 0 29.27 0zM334.8 246.26l19.22 18.3 38.9-46.23c3.27-3.32 5.31-5.97 9.33-1.82l9.8 10.11c4.29 4.24 4.08 6.73.04 10.68l-50.6 56.51c-8.53 8.36-7.05 8.87-15.7.29l-29.71-29.54c-1.81-1.94-1.61-3.91.36-5.86l11.9-12.47c2.3-2.42 4.12-2.2 6.46.03zm30.18-105.89c31.07 0 60.75 12.29 82.72 34.27 30.33 30.33 41.62 75.06 29.4 116.14-2.83 9.53-6.85 18.55-11.88 26.89l45.3 49.38c2.09 2.27 1.95 5.82-.33 7.91l-33.26 30.38c-2.27 2.08-5.8 1.92-7.89-.35l-43.34-47.67c-18.35 11.18-39.22 17.02-60.72 17.02-31.06 0-60.75-12.3-82.71-34.27a117.18 117.18 0 0 1-25.39-37.99c-18.13-43.67-7.82-94.22 25.4-127.43a116.814 116.814 0 0 1 37.96-25.4c13.8-5.73 28.92-8.88 44.74-8.88zm70.93 46.04c-28.63-28.63-72.03-37.24-109.31-21.8-66.92 27.71-82.3 113.99-32.58 163.67 28.68 28.61 72 37.26 109.33 21.81 37.54-15.59 61.94-52.1 61.94-92.74 0-13.62-2.69-26.59-7.56-38.37a101.013 101.013 0 0 0-21.82-32.57zM43.83 259.44H212c.07 5.17.4 10.36 1 15.54H43.83v-15.54zm6.65-148.64h270.54c-4.95 1.5-9.82 3.24-14.57 5.21l.02.06c-9.35 3.87-18.21 8.63-26.46 14.15a153.393 153.393 0 0 0-23.11 18.95l-.12.12c-12.11 12.14-21.89 26-29.19 40.88H50.48c-3.66 0-6.65-2.99-6.65-6.65v-66.06c0-3.66 2.99-6.66 6.65-6.66zm-6.65 106.27h173.59a150.42 150.42 0 0 0-3.4 15.54H43.83v-15.54zM375.21 32.9c7.99 0 14.46 6.47 14.46 14.46 0 7.98-6.47 14.46-14.46 14.46-7.98 0-14.46-6.48-14.46-14.46.04-7.99 6.51-14.46 14.46-14.46zm-97.95 0c7.99 0 14.46 6.47 14.46 14.46 0 7.98-6.47 14.46-14.46 14.46-7.99 0-14.46-6.48-14.46-14.46 0-7.99 6.47-14.46 14.46-14.46zm48.98 0c7.98 0 14.45 6.47 14.45 14.46 0 7.98-6.47 14.46-14.45 14.46-7.99 0-14.47-6.48-14.47-14.46 0-7.99 6.48-14.46 14.47-14.46z"/></svg>