<?xml version="1.0" encoding="utf-8"?><svg fill="#0ea5e9" version="1.1" id="Layer_1" xmlns="http://www.w3.org/2000/svg" xmlns:xlink="http://www.w3.org/1999/xlink" x="0px" y="0px" viewBox="0 0 122.88 115.39" style="enable-background:new 0 0 122.88 115.39" xml:space="preserve"><style type="text/css"><![CDATA[
	.st0{fill-rule:evenodd;clip-rule:evenodd;}
]]></style><g><path class="st0" d="M102.79,7.11l2.59,3.41c0.68,0.9,0.51,2.19-0.39,2.87l-2.75,2.09c0.5,1.33,0.82,2.75,0.95,4.2l3.13,0.43 c1.12,0.15,1.9,1.19,1.75,2.31l-0.58,4.25c-0.15,1.12-1.19,1.91-2.31,1.75l-3.42-0.47c-0.61,1.33-1.39,2.55-2.31,3.64l1.92,2.52 c0.68,0.9,0.5,2.19-0.4,2.87l-3.41,2.59c-0.9,0.68-2.19,0.5-2.87-0.39l-2.09-2.75c-1.34,0.5-2.75,0.82-4.21,0.95l-0.43,3.13 c-0.15,1.12-1.19,1.9-2.31,1.75l-4.25-0.58c-1.12-0.15-1.9-1.19-1.75-2.31l0.47-3.42c-1.32-0.61-2.55-1.39-3.64-2.3l-2.52,1.91 c-0.9,0.68-2.19,0.51-2.87-0.39l-2.59-3.41c-0.68-0.9-0.51-2.19,0.39-2.87l2.75-2.09c-0.5-1.34-0.82-2.75-0.95-4.2l-3.13-0.43 c-1.12-0.15-1.91-1.19-1.75-2.31l0.58-4.25c0.16-1.12,1.19-1.9,2.31-1.75l3.42,0.47c0.61-1.32,1.39-2.55,2.3-3.64l-1.91-2.52 C71.83,7.28,72,5.99,72.9,5.31l3.41-2.59c0.9-0.68,2.19-0.51,2.87,0.39l2.09,2.75c1.33-0.5,2.75-0.82,4.2-0.95l0.43-3.13 c0.15-1.12,1.19-1.91,2.31-1.76l4.25,0.58c1.12,0.15,1.91,1.19,1.75,2.31l-0.47,3.42c1.33,0.61,2.55,1.39,3.65,2.31l2.52-1.91 C100.81,6.04,102.1,6.21,102.79,7.11L102.79,7.11L102.79,7.11L102.79,7.11z M30.58,56.09h60.94c1.16,0,2.22,0.48,2.99,1.25l0,0 l0.01,0.01l0.01,0.01l0,0c0.77,0.77,1.24,1.83,1.24,2.99v50.79c0,1.17-0.48,2.23-1.25,3c-0.77,0.77-1.83,1.25-3,1.25H30.58 c-1.16,0-2.22-0.47-3-1.25l-0.01-0.01l0,0l-0.01-0.01c-0.77-0.77-1.24-1.83-1.24-2.99v-50.8c0.01-1.17,0.49-2.23,1.25-3 c0.05-0.04,0.09-0.09,0.14-0.13C28.48,56.52,29.48,56.09,30.58,56.09L30.58,56.09L30.58,56.09z M37.46,104.21 c-0.88,0-1.6-0.79-1.6-1.75c0-0.97,0.72-1.76,1.6-1.76h18.45c0.88,0,1.6,0.79,1.6,1.76c0,0.97-0.72,1.76-1.6,1.76H37.46 L37.46,104.21L37.46,104.21z M63.51,104.21c-0.89,0-1.62-0.79-1.62-1.75c0-0.97,0.72-1.76,1.62-1.76h19.9 c0.89,0,1.62,0.79,1.62,1.76c0,0.97-0.72,1.76-1.62,1.76H63.51L63.51,104.21L63.51,104.21z M36.27,75.74h48.56v19.01H36.27V75.74 L36.27,75.74L36.27,75.74z M91.94,71.31c-0.14,0.02-0.27,0.03-0.41,0.03H30.58c-0.14,0-0.28-0.01-0.41-0.03v39.82 c0,0.11,0.05,0.21,0.11,0.29l0,0l0.01,0.01c0.07,0.07,0.17,0.11,0.29,0.11h60.94c0.11,0,0.21-0.04,0.29-0.12 c0.07-0.08,0.13-0.18,0.13-0.29V71.31L91.94,71.31L91.94,71.31z M54.66,61.57c1.52,0,2.76,1.24,2.76,2.76 c0,1.52-1.24,2.76-2.76,2.76c-1.52,0-2.76-1.24-2.76-2.76C51.9,62.81,53.14,61.57,54.66,61.57L54.66,61.57L54.66,61.57z M45.01,61.57c1.53,0,2.76,1.24,2.76,2.76c0,1.52-1.24,2.76-2.76,2.76c-1.52,0-2.76-1.24-2.76-2.76 C42.25,62.81,43.49,61.57,45.01,61.57L45.01,61.57L45.01,61.57z M35.37,61.57c1.53,0,2.76,1.24,2.76,2.76 c0,1.52-1.24,2.76-2.76,2.76c-1.52,0-2.76-1.24-2.76-2.76C32.61,62.81,33.85,61.57,35.37,61.57L35.37,61.57L35.37,61.57z M60.53,11.46c-1.83-0.14-3.68-0.12-5.51,0.06c-5.63,0.54-11.1,2.59-15.62,6.1c-5.23,4.05-9.2,10.11-10.73,18.14l-0.48,2.51 l-2.5,0.44c-2.45,0.43-4.64,1.02-6.56,1.77c-1.86,0.72-3.52,1.61-4.97,2.66c-1.16,0.84-2.16,1.78-3.01,2.8 c-2.63,3.15-3.85,7.1-3.82,11.1c0.03,4.06,1.35,8.16,3.79,11.53c0.91,1.25,1.96,2.4,3.16,3.4c1.22,1.01,2.59,1.85,4.13,2.48 c0.87,0.36,1.8,0.66,2.77,0.9v7.49c-2-0.36-3.84-0.9-5.56-1.61c-2.27-0.94-4.28-2.15-6.05-3.63c-1.68-1.4-3.15-2.99-4.4-4.72 C1.84,68.28,0.04,62.66,0,57.06c-0.04-5.66,1.72-11.29,5.52-15.85c1.23-1.48,2.68-2.84,4.34-4.04c1.93-1.4,4.14-2.58,6.64-3.55 c1.72-0.67,3.56-1.23,5.5-1.68c2.2-8.74,6.89-15.47,12.92-20.14c5.64-4.37,12.43-6.92,19.42-7.59c3.67-0.35,7.39-0.19,11.03,0.49 c-0.08,0.33-0.15,0.66-0.19,1l-0.01,0.06c-0.07,0.57-0.1,1.14-0.07,1.72c-0.77,0.3-1.49,0.71-2.14,1.21l-0.03,0.02 C61.96,9.44,61.14,10.38,60.53,11.46L60.53,11.46L60.53,11.46z M113.44,30.66c0.56,0.51,1.1,1.04,1.63,1.61 c1.07,1.15,2.08,2.45,3.03,3.9c3.2,4.92,4.84,11.49,4.77,17.92c-0.07,6.31-1.77,12.59-5.25,17.21c-2.27,3.01-5.18,5.47-8.67,7.42 c-2.39,1.34-5.08,2.45-8.01,3.35v-7.75c1.58-0.59,3.05-1.25,4.4-2c2.63-1.47,4.78-3.26,6.39-5.41c2.5-3.33,3.73-8.04,3.78-12.87 c0.06-5.07-1.18-10.16-3.59-13.86c-0.69-1.07-1.45-2.03-2.25-2.89c-0.31-0.33-0.62-0.64-0.94-0.94c0.05-0.5,0.07-1.01,0.04-1.52 c0.77-0.3,1.49-0.71,2.14-1.21l0.03-0.02C111.97,32.81,112.83,31.81,113.44,30.66L113.44,30.66L113.44,30.66z M88.08,12.8 c4.61,0.63,7.83,4.88,7.2,9.49c-0.63,4.61-4.88,7.84-9.49,7.21c-4.61-0.63-7.84-4.88-7.2-9.49C79.23,15.4,83.47,12.17,88.08,12.8 L88.08,12.8L88.08,12.8L88.08,12.8z"/></g></svg>